<svg width="28" height="28" viewBox="0 0 28 28" fill="none" xmlns="http://www.w3.org/2000/svg">
<path d="M0 5C0 2.23858 2.23858 0 5 0H23C25.7614 0 28 2.23858 28 5V23C28 25.7614 25.7614 28 23 28H5C2.23858 28 0 25.7614 0 23V5Z" fill="black"/>
<path d="M15.9091 16.7274C15.9091 17.0288 15.6955 17.2729 15.4318 17.2729H12.5682C12.3045 17.2729 12.0909 17.0288 12.0909 16.7274V15.091H6.36365V20.0001C6.36365 20.8729 7.03183 21.6365 7.79547 21.6365H20.2046C20.9682 21.6365 21.6364 20.8729 21.6364 20.0001V15.091H15.9091V16.7274ZM20.2046 9.6365H17.8182V8.00013C17.8182 7.12741 17.15 6.36377 16.3864 6.36377H11.6136C10.85 6.36377 10.1818 7.12741 10.1818 8.00013V9.6365H7.79547C7.03183 9.6365 6.36365 10.4001 6.36365 11.2729V14.0001H21.6364V11.2729C21.6364 10.4001 20.9682 9.6365 20.2046 9.6365ZM15.9091 9.6365H12.0909V8.54559H15.9091V9.6365Z" fill="white"/>
</svg>
