<svg width="24" height="24" viewBox="0 0 24 24" fill="none" xmlns="http://www.w3.org/2000/svg">
<path fill-rule="evenodd" clip-rule="evenodd" d="M21.4976 16.4126C18.8596 13.2126 17.5446 13.4996 16.0986 14.2026C15.0976 14.6886 14.2336 15.1106 11.9876 12.8636C9.74165 10.6166 10.1626 9.7536 10.6486 8.7546C11.3536 7.3076 11.6396 5.9896 8.43665 3.3526C7.67365 2.7276 6.84165 2.4876 5.97565 2.6556C4.14265 2.9986 2.84765 5.0386 2.84965 5.0386C2.03765 6.1746 0.925653 9.5906 8.09265 16.7586C12.8066 21.4736 15.8976 22.6046 17.7736 22.6046C18.7506 22.6046 19.3966 22.2986 19.7706 22.0296C19.7916 22.0176 21.8496 20.7426 22.1966 18.8736C22.3586 18.0046 22.1236 17.1776 21.4976 16.4126Z" fill="#626262"/>
</svg>
